<svg width="96" height="147" viewBox="0 0 96 147" fill="none" xmlns="http://www.w3.org/2000/svg">
<path d="M17.5815 78.8864C28.7119 81.9353 31.3416 81.0818 33.3252 84.0654C33.553 84.4078 34.716 86.1584 34.4834 88.405C34.2977 90.1952 33.3006 91.5768 32.6734 92.1842C28.8604 95.8753 18.3683 91.3597 12.3594 86.4209C11.0494 85.344 7.53431 82.4556 8.24226 80.4038C8.5324 79.5634 9.4333 79.1456 10.0798 78.8564C12.9382 77.5778 15.903 78.4265 17.5815 78.8864Z" fill="url(#paint0_linear_1277_16156)"/>
<path d="M51.9468 4.07166H49.5778V19.6176H51.9468V4.07166Z" fill="url(#paint1_linear_1277_16156)"/>
<path d="M58.943 28.205H42.5818C41.3753 28.205 40.3975 27.2272 40.3975 26.0207V20.1733C40.3975 18.9668 41.3753 17.989 42.5818 17.989H58.943C60.1495 17.989 61.1273 18.9668 61.1273 20.1733V26.0207C61.1268 27.2272 60.149 28.205 58.943 28.205Z" fill="url(#paint2_linear_1277_16156)"/>
<path d="M87.8506 62.1842C87.8506 71.6284 80.1942 79.2848 70.75 79.2848H30.7744C21.3689 79.2848 13.6738 71.5897 13.6738 62.1842V53.301C13.6738 36.5669 27.3653 22.875 44.0998 22.875H57.4252C74.1592 22.875 87.8511 36.5664 87.8511 53.301L87.8506 62.1842Z" fill="url(#paint3_linear_1277_16156)"/>
<path d="M76.1834 60.5648C75.2128 61.0445 74.1248 61.2959 73.0193 61.2959H28.5054C27.4 61.2959 26.3119 61.0445 25.3414 60.5648C22.9574 59.3863 21.6121 57.0066 21.9486 54.5656L21.9733 54.3881C23.1141 46.1195 30.6027 39.7624 39.7838 39.2846C43.6683 39.0825 47.7449 38.978 51.9969 39.0027C55.3278 39.022 58.5474 39.1197 61.6476 39.2793C70.8636 39.7542 78.4073 46.0861 79.5524 54.3861C79.5606 54.4456 79.5689 54.5056 79.5771 54.5651C79.9132 57.0066 78.5674 59.3863 76.1834 60.5648Z" fill="url(#paint4_linear_1277_16156)"/>
<path d="M39.0305 59.4738C43.6663 59.4738 47.4243 55.7157 47.4243 51.0799C47.4243 46.4441 43.6663 42.686 39.0305 42.686C34.3947 42.686 30.6366 46.4441 30.6366 51.0799C30.6366 55.7157 34.3947 59.4738 39.0305 59.4738Z" fill="url(#paint5_radial_1277_16156)"/>
<path d="M39.0305 57.1047C42.3579 57.1047 45.0553 54.4073 45.0553 51.0799C45.0553 47.7525 42.3579 45.0551 39.0305 45.0551C35.703 45.0551 33.0056 47.7525 33.0056 51.0799C33.0056 54.4073 35.703 57.1047 39.0305 57.1047Z" fill="#EEFDFF"/>
<path d="M39.0306 56.14C41.8252 56.14 44.0907 53.8745 44.0907 51.0799C44.0907 48.2853 41.8252 46.0198 39.0306 46.0198C36.236 46.0198 33.9705 48.2853 33.9705 51.0799C33.9705 53.8745 36.236 56.14 39.0306 56.14Z" fill="url(#paint6_linear_1277_16156)"/>
<path d="M42.272 49.7685C42.272 50.8038 41.433 51.6428 40.3976 51.6428C39.3623 51.6428 38.5233 50.8033 38.5233 49.7685C38.5233 48.7337 39.3623 47.8942 40.3976 47.8942C41.433 47.8942 42.272 48.7337 42.272 49.7685Z" fill="#EEFDFF"/>
<path d="M38.2824 55.7087C38.6955 55.7087 39.0305 55.3738 39.0305 54.9606C39.0305 54.5475 38.6955 54.2125 38.2824 54.2125C37.8692 54.2125 37.5343 54.5475 37.5343 54.9606C37.5343 55.3738 37.8692 55.7087 38.2824 55.7087Z" fill="#EEFDFF"/>
<path d="M36.4274 53.8383C36.4274 54.0448 36.2601 54.2121 36.0536 54.2121C35.8471 54.2121 35.6798 54.0448 35.6798 53.8383C35.6798 53.6318 35.8471 53.4645 36.0536 53.4645C36.2601 53.4645 36.4274 53.6323 36.4274 53.8383Z" fill="#EEFDFF"/>
<path d="M61.7061 59.4738C66.3419 59.4738 70.1 55.7157 70.1 51.0799C70.1 46.4441 66.3419 42.686 61.7061 42.686C57.0703 42.686 53.3123 46.4441 53.3123 51.0799C53.3123 55.7157 57.0703 59.4738 61.7061 59.4738Z" fill="url(#paint7_radial_1277_16156)"/>
<path d="M61.706 57.1047C65.0334 57.1047 67.7308 54.4073 67.7308 51.0799C67.7308 47.7525 65.0334 45.0551 61.706 45.0551C58.3786 45.0551 55.6812 47.7525 55.6812 51.0799C55.6812 54.4073 58.3786 57.1047 61.706 57.1047Z" fill="#EEFDFF"/>
<path d="M61.7061 56.14C64.5007 56.14 66.7662 53.8745 66.7662 51.0799C66.7662 48.2853 64.5007 46.0198 61.7061 46.0198C58.9115 46.0198 56.646 48.2853 56.646 51.0799C56.646 53.8745 58.9115 56.14 61.7061 56.14Z" fill="url(#paint8_linear_1277_16156)"/>
<path d="M64.948 49.7685C64.948 50.8038 64.1085 51.6428 63.0737 51.6428C62.0388 51.6428 61.1989 50.8033 61.1989 49.7685C61.1989 48.7337 62.0383 47.8942 63.0737 47.8942C64.109 47.8942 64.948 48.7337 64.948 49.7685Z" fill="#EEFDFF"/>
<path d="M60.9579 55.7087C61.3711 55.7087 61.706 55.3738 61.706 54.9606C61.706 54.5475 61.3711 54.2125 60.9579 54.2125C60.5448 54.2125 60.2098 54.5475 60.2098 54.9606C60.2098 55.3738 60.5448 55.7087 60.9579 55.7087Z" fill="#EEFDFF"/>
<path d="M59.1029 53.8383C59.1029 54.0448 58.9356 54.2121 58.7292 54.2121C58.5227 54.2121 58.3553 54.0448 58.3553 53.8383C58.3553 53.6318 58.5227 53.4645 58.7292 53.4645C58.9356 53.4645 59.1029 53.6323 59.1029 53.8383Z" fill="#EEFDFF"/>
<path d="M53.7974 3.03539C53.7974 4.71146 52.4385 6.07079 50.762 6.07079C49.0859 6.07079 47.7271 4.71194 47.7271 3.03539C47.7271 1.35933 49.0859 0 50.762 0C52.4385 0 53.7974 1.35884 53.7974 3.03539Z" fill="url(#paint9_linear_1277_16156)"/>
<path d="M52.8722 1.85073C52.8722 2.36187 52.4578 2.77581 51.9467 2.77581C51.4355 2.77581 51.0211 2.36139 51.0211 1.85073C51.0211 1.33959 51.4355 0.925171 51.9467 0.925171C52.4578 0.925654 52.8722 1.33959 52.8722 1.85073Z" fill="white"/>
<path d="M76.8967 32.607C76.9368 34.0239 75.7801 35.7188 74.4551 35.8634C73.2133 35.9993 72.2215 34.7304 71.1987 33.4218C70.1905 32.1321 67.9859 28.8187 68.864 27.8815C70.0212 26.646 76.8014 29.264 76.8967 32.607Z" fill="white"/>
<path d="M65.5511 27.2054C66.1336 27.2054 66.6058 26.7332 66.6058 26.1507C66.6058 25.5683 66.1336 25.0961 65.5511 25.0961C64.9687 25.0961 64.4965 25.5683 64.4965 26.1507C64.4965 26.7332 64.9687 27.2054 65.5511 27.2054Z" fill="white"/>
<path d="M76.7463 52.2632C76.4078 52.5021 74.0484 47.6954 67.7146 43.5279C65.4882 42.0627 63.2904 41.0187 63.4209 40.715C63.5534 40.407 66.0289 40.98 68.0105 41.8993C74.325 44.8287 77.1486 51.9793 76.7463 52.2632Z" fill="white"/>
<path d="M60.5271 21.0133C60.4517 21.0239 60.4033 20.5805 60.0339 19.8953C60.0339 19.8953 59.8612 19.5747 59.6639 19.3029C59.028 18.4276 56.8723 18.447 56.703 18.4484C53.3456 18.4774 51.1869 18.2647 51.1879 18.285C51.1884 18.3019 52.7629 18.27 53.9167 18.2468C57.1716 18.1805 59.1107 18.0055 59.942 18.8773C60.2868 19.2391 60.4604 19.7101 60.4604 19.7101C60.6954 20.3493 60.6171 21.0002 60.5271 21.0133Z" fill="white"/>
<path d="M59.829 64.898C59.7467 65.7022 59.0775 66.3217 58.2728 66.3991L47.1535 67.4711C46.3493 67.5485 45.5737 67.0693 45.3392 66.2956C45.2347 65.9518 45.1544 65.5973 45.0998 65.2327C45.0848 65.1321 45.1114 65.0296 45.1743 64.9488C45.2371 64.8685 45.33 64.8178 45.4315 64.8076L59.4595 63.4546C59.5596 63.4449 59.6587 63.4768 59.7347 63.5426C59.8106 63.6084 59.8555 63.7027 59.8599 63.8028C59.8768 64.1737 59.8657 64.5392 59.829 64.898Z" fill="#EEFDFF"/>
<path d="M59.8293 64.8989C59.4739 68.3458 56.7335 71.1796 53.1536 71.5215C49.6226 71.8634 46.4334 69.6737 45.385 66.4314C45.665 67.1243 46.3933 67.5465 47.153 67.4706L58.2751 66.3999C59.0788 66.3202 59.7452 65.7026 59.8293 64.8989Z" fill="url(#paint10_linear_1277_16156)"/>
<path d="M77.3484 89.8722C77.3484 89.9742 77.3484 90.0719 77.344 90.1652C77.3087 91.098 77.0906 91.7997 76.9842 92.115C73.9237 101.465 72.0895 106.395 69.5179 110.384C69.0739 111.073 68.6073 111.734 68.1054 112.383C67.4482 113.249 66.7286 114.092 65.9288 114.963C64.1521 116.896 61.4649 117.77 60.5988 118.073C57.4319 119.192 54.6335 118.988 52.7727 119.006H52.4482C50.5826 118.988 47.789 119.192 44.6221 118.073C43.756 117.77 41.0644 116.896 39.2921 114.963C34.4061 109.646 32.5274 105.227 28.2366 92.115C28.1346 91.8132 27.9301 91.1599 27.8812 90.2851C27.8682 90.0318 27.8633 89.7788 27.8769 89.5254C27.9702 87.9577 28.6051 86.4204 29.7338 85.0171C31.6662 82.6099 34.6508 81.2907 37.7379 81.2771L52.6131 81.2147L67.2175 81.1572C70.3714 81.1437 73.4271 82.4677 75.43 84.9059C76.3986 86.0872 77.0157 87.3619 77.2425 88.6768C77.2734 88.8634 77.3 89.0544 77.3179 89.2411C77.3348 89.45 77.3484 89.6589 77.3484 89.8722Z" fill="url(#paint11_linear_1277_16156)"/>
<path d="M52.6101 81.2172L37.7349 81.2796C34.6478 81.2931 31.6632 82.6123 29.7308 85.0195C28.6026 86.4233 27.9677 87.9601 27.8739 89.5279C27.9493 87.92 28.6114 86.3431 29.7884 84.9083C31.787 82.4696 34.8475 81.1461 38.0009 81.1596L52.6101 81.2172Z" fill="url(#paint12_linear_1277_16156)"/>
<path d="M67.3945 103.132C67.1774 91.5937 65.6159 89.3117 67.9187 86.5669C68.1832 86.2517 69.5339 84.6418 71.7549 84.2308C73.5248 83.9034 75.1312 84.4702 75.8914 84.9006C80.5086 87.5162 79.1386 98.8565 76.0969 106.015C75.4339 107.576 73.6549 111.764 71.4865 111.663C70.5982 111.622 69.943 110.876 69.4836 110.337C67.4501 107.956 67.4274 104.872 67.3945 103.132Z" fill="url(#paint13_linear_1277_16156)"/>
<path d="M69.5173 110.384C69.0734 111.072 68.6068 111.734 68.1048 112.382C67.9448 112.218 67.8026 112.054 67.674 111.903C65.6396 109.522 65.6173 106.439 65.5864 104.698C65.3688 93.159 63.8054 90.8804 66.1106 88.1351C66.2793 87.931 66.8969 87.1979 67.9008 86.5896C65.6265 89.3257 67.1769 91.6265 67.3945 103.131C67.4254 104.872 67.452 107.954 69.482 110.34C69.4951 110.353 69.5086 110.366 69.5173 110.384Z" fill="url(#paint14_linear_1277_16156)"/>
<path d="M76.0287 93.5236C75.9634 92.2838 75.7308 91.3722 75.2656 89.5482C74.6573 87.1622 73.8942 85.9992 74.3899 85.5384C74.7124 85.2386 75.3478 85.4412 75.4919 85.4871C77.6728 86.183 78.3479 90.2745 78.2541 92.835C78.1965 94.4028 77.814 96.1557 77.2395 96.2331C77.1491 96.2452 76.9238 96.2336 76.7627 96.0909C76.1215 95.5247 76.0785 94.4661 76.0287 93.5236Z" fill="white"/>
<path d="M77.5262 97.8995C77.5262 98.1495 77.3236 98.3521 77.0736 98.3521C76.8236 98.3521 76.621 98.1495 76.621 97.8995C76.621 97.6495 76.8236 97.4469 77.0736 97.4469C77.3236 97.4469 77.5262 97.6495 77.5262 97.8995Z" fill="white"/>
<rect y="121.01" width="96" height="26" rx="4" fill="#7468F0"/>
<path d="M16.385 139.01L20.004 128.888H22.167L25.786 139.01H23.749L22.923 136.665H19.276L18.436 139.01H16.385ZM19.738 134.88H22.426L21.089 130.855L19.738 134.88ZM30.8948 139.15C30.3908 139.15 29.8985 139.087 29.4178 138.961C28.9371 138.835 28.4985 138.646 28.1018 138.394C27.7051 138.142 27.3785 137.827 27.1218 137.449C26.8698 137.071 26.7181 136.627 26.6668 136.119H28.7598C28.8298 136.427 28.9628 136.686 29.1588 136.896C29.3595 137.106 29.6161 137.267 29.9288 137.379C30.2461 137.491 30.6078 137.547 31.0138 137.547C31.3358 137.547 31.6415 137.5 31.9308 137.407C32.2201 137.313 32.4558 137.171 32.6378 136.98C32.8198 136.788 32.9108 136.548 32.9108 136.259C32.9108 135.913 32.7848 135.654 32.5328 135.482C32.2808 135.304 31.9378 135.164 31.5038 135.062L29.6068 134.649C29.0701 134.537 28.6011 134.364 28.1998 134.131C27.8031 133.893 27.4975 133.585 27.2828 133.207C27.0681 132.824 26.9608 132.36 26.9608 131.814C26.9608 131.184 27.1335 130.64 27.4788 130.183C27.8288 129.725 28.3025 129.375 28.8998 129.133C29.5018 128.885 30.1761 128.762 30.9228 128.762C31.7675 128.762 32.4791 128.899 33.0578 129.175C33.6411 129.445 34.0868 129.814 34.3948 130.281C34.7028 130.743 34.8591 131.258 34.8638 131.828H32.8198C32.7825 131.478 32.6751 131.198 32.4978 130.988C32.3205 130.773 32.0918 130.619 31.8118 130.526C31.5365 130.428 31.2215 130.379 30.8668 130.379C30.2555 130.379 29.8098 130.502 29.5298 130.75C29.2498 130.997 29.1098 131.284 29.1098 131.611C29.1098 131.919 29.2148 132.168 29.4248 132.36C29.6395 132.546 29.9825 132.689 30.4538 132.787L32.2108 133.165C32.8641 133.291 33.3938 133.491 33.7998 133.767C34.2058 134.037 34.5021 134.366 34.6888 134.754C34.8755 135.141 34.9688 135.575 34.9688 136.056C34.9688 136.667 34.7938 137.206 34.4438 137.673C34.0985 138.135 33.6201 138.496 33.0088 138.758C32.3975 139.019 31.6928 139.15 30.8948 139.15ZM36.7805 139.01V128.888H38.9015V133.522L42.5905 128.888H44.9355L41.8625 132.808L45.3065 139.01H43.0805L40.3995 134.299L38.9015 136.105V139.01H36.7805ZM54.0968 139.15C53.1542 139.15 52.3398 138.93 51.6538 138.492C50.9678 138.053 50.4382 137.437 50.0648 136.644C49.6962 135.85 49.5118 134.924 49.5118 133.865C49.5118 132.801 49.6962 131.888 50.0648 131.128C50.4335 130.362 50.9608 129.774 51.6468 129.364C52.3328 128.953 53.1495 128.748 54.0968 128.748C54.8575 128.748 55.5342 128.902 56.1268 129.21C56.7242 129.513 57.2048 129.928 57.5688 130.456C57.9375 130.983 58.1545 131.578 58.2198 132.241H56.0778C56.0125 131.891 55.8935 131.58 55.7208 131.31C55.5482 131.034 55.3218 130.82 55.0418 130.666C54.7618 130.507 54.4258 130.428 54.0338 130.428C53.5625 130.428 53.1565 130.542 52.8158 130.771C52.4752 130.999 52.2138 131.368 52.0318 131.877C51.8498 132.385 51.7588 133.057 51.7588 133.893C51.7588 135.153 51.9595 136.065 52.3608 136.63C52.7668 137.19 53.3245 137.47 54.0338 137.47C54.4258 137.47 54.7618 137.381 55.0418 137.204C55.3218 137.022 55.5482 136.784 55.7208 136.49C55.8935 136.191 56.0125 135.864 56.0778 135.51H58.2198C58.1592 135.99 58.0425 136.45 57.8698 136.889C57.6972 137.323 57.4522 137.71 57.1348 138.051C56.8175 138.391 56.4092 138.66 55.9098 138.856C55.4105 139.052 54.8062 139.15 54.0968 139.15ZM60.0227 139.01V128.888C60.074 128.888 60.2163 128.888 60.4497 128.888C60.6877 128.888 60.9653 128.888 61.2827 128.888C61.6047 128.888 61.9243 128.89 62.2417 128.895C62.5637 128.895 62.832 128.897 63.0467 128.902C64.274 128.93 65.275 129.149 66.0497 129.56C66.8243 129.97 67.3913 130.544 67.7507 131.282C68.1147 132.019 68.2967 132.892 68.2967 133.9C68.2967 134.95 68.1053 135.857 67.7227 136.623C67.34 137.383 66.7543 137.971 65.9657 138.387C65.1817 138.802 64.1853 139.01 62.9767 139.01H60.0227ZM62.0807 137.358H63.0187C63.5973 137.358 64.1223 137.246 64.5937 137.022C65.0697 136.798 65.45 136.431 65.7347 135.923C66.0193 135.414 66.1617 134.735 66.1617 133.886C66.1617 133.097 66.0357 132.458 65.7837 131.968C65.5317 131.473 65.1723 131.111 64.7057 130.883C64.239 130.654 63.686 130.54 63.0467 130.54H62.0807V137.358ZM74.2218 139.15C73.2792 139.15 72.4648 138.93 71.7788 138.492C71.0928 138.053 70.5632 137.437 70.1898 136.644C69.8212 135.85 69.6368 134.924 69.6368 133.865C69.6368 132.801 69.8212 131.888 70.1898 131.128C70.5585 130.362 71.0858 129.774 71.7718 129.364C72.4578 128.953 73.2745 128.748 74.2218 128.748C74.9825 128.748 75.6592 128.902 76.2518 129.21C76.8492 129.513 77.3298 129.928 77.6938 130.456C78.0625 130.983 78.2795 131.578 78.3448 132.241H76.2028C76.1375 131.891 76.0185 131.58 75.8458 131.31C75.6732 131.034 75.4468 130.82 75.1668 130.666C74.8868 130.507 74.5508 130.428 74.1588 130.428C73.6875 130.428 73.2815 130.542 72.9408 130.771C72.6002 130.999 72.3388 131.368 72.1568 131.877C71.9748 132.385 71.8838 133.057 71.8838 133.893C71.8838 135.153 72.0845 136.065 72.4858 136.63C72.8918 137.19 73.4495 137.47 74.1588 137.47C74.5508 137.47 74.8868 137.381 75.1668 137.204C75.4468 137.022 75.6732 136.784 75.8458 136.49C76.0185 136.191 76.1375 135.864 76.2028 135.51H78.3448C78.2842 135.99 78.1675 136.45 77.9948 136.889C77.8222 137.323 77.5772 137.71 77.2598 138.051C76.9425 138.391 76.5342 138.66 76.0348 138.856C75.5355 139.052 74.9312 139.15 74.2218 139.15Z" fill="white"/>
<defs>
<linearGradient id="paint0_linear_1277_16156" x1="23.9161" y1="85.9013" x2="67.0719" y2="119.441" gradientUnits="userSpaceOnUse">
<stop offset="0.0397" stop-color="#7367F0" stop-opacity="0.7"/>
<stop offset="1" stop-color="#7367F0"/>
</linearGradient>
<linearGradient id="paint1_linear_1277_16156" x1="45.9344" y1="12.5487" x2="53.0412" y2="11.5122" gradientUnits="userSpaceOnUse">
<stop offset="0.0397" stop-color="#7367F0" stop-opacity="0.64"/>
<stop offset="1" stop-color="#7367F0"/>
</linearGradient>
<linearGradient id="paint2_linear_1277_16156" x1="44.1216" y1="30.5945" x2="56.7335" y2="16.3552" gradientUnits="userSpaceOnUse">
<stop offset="0.0397" stop-color="#7367F0" stop-opacity="0.7"/>
<stop offset="1" stop-color="#7367F0"/>
</linearGradient>
<linearGradient id="paint3_linear_1277_16156" x1="25.8543" y1="79.9168" x2="75.8309" y2="29.9401" gradientUnits="userSpaceOnUse">
<stop offset="0.0397" stop-color="#7367F0" stop-opacity="0.7"/>
<stop offset="1" stop-color="#7367F0"/>
</linearGradient>
<linearGradient id="paint4_linear_1277_16156" x1="50.6307" y1="61.2239" x2="51.075" y2="41.2361" gradientUnits="userSpaceOnUse">
<stop stop-color="#030D14"/>
<stop offset="1" stop-color="#0B2F45"/>
</linearGradient>
<radialGradient id="paint5_radial_1277_16156" cx="0" cy="0" r="1" gradientUnits="userSpaceOnUse" gradientTransform="translate(39.0303 51.0799) scale(8.30702 8.30702)">
<stop offset="0.1296" stop-color="#3280FC"/>
<stop offset="1"/>
</radialGradient>
<linearGradient id="paint6_linear_1277_16156" x1="33.9701" y1="51.0798" x2="44.0907" y2="51.0798" gradientUnits="userSpaceOnUse">
<stop stop-color="#030D14"/>
<stop offset="1" stop-color="#0B2F45"/>
</linearGradient>
<radialGradient id="paint7_radial_1277_16156" cx="0" cy="0" r="1" gradientUnits="userSpaceOnUse" gradientTransform="translate(61.706 51.0799) scale(8.30702)">
<stop offset="0.1296" stop-color="#3280FC"/>
<stop offset="1"/>
</radialGradient>
<linearGradient id="paint8_linear_1277_16156" x1="56.6457" y1="51.0798" x2="66.7663" y2="51.0798" gradientUnits="userSpaceOnUse">
<stop stop-color="#030D14"/>
<stop offset="1" stop-color="#0B2F45"/>
</linearGradient>
<linearGradient id="paint9_linear_1277_16156" x1="44.3729" y1="3.96695" x2="53.7781" y2="2.59534" gradientUnits="userSpaceOnUse">
<stop offset="0.0397" stop-color="#7367F0" stop-opacity="0.7"/>
<stop offset="1" stop-color="#7367F0"/>
</linearGradient>
<linearGradient id="paint10_linear_1277_16156" x1="50.4585" y1="68.9872" x2="64.9284" y2="54.5172" gradientUnits="userSpaceOnUse">
<stop offset="0.0714" stop-color="#7367F0" stop-opacity="0.7"/>
<stop offset="1" stop-color="#7367F0"/>
</linearGradient>
<linearGradient id="paint11_linear_1277_16156" x1="65.5" y1="113.5" x2="31" y2="85.5" gradientUnits="userSpaceOnUse">
<stop stop-color="#776CF0" stop-opacity="0.7"/>
<stop offset="1" stop-color="#7367F0"/>
</linearGradient>
<linearGradient id="paint12_linear_1277_16156" x1="34.7614" y1="90.5784" x2="57.8164" y2="63.6561" gradientUnits="userSpaceOnUse">
<stop offset="0.0397" stop-color="#06CFF1"/>
<stop offset="1" stop-color="#DEFA8E"/>
</linearGradient>
<linearGradient id="paint13_linear_1277_16156" x1="84.2985" y1="106.213" x2="55.594" y2="85.2186" gradientUnits="userSpaceOnUse">
<stop stop-color="#7367F0" stop-opacity="0.7"/>
<stop offset="1" stop-color="#7367F0"/>
</linearGradient>
<linearGradient id="paint14_linear_1277_16156" x1="58.5" y1="106.5" x2="60" y2="108.5" gradientUnits="userSpaceOnUse">
<stop offset="0.0397" stop-color="#7367F0" stop-opacity="0.7"/>
<stop offset="1" stop-color="#7367F0"/>
</linearGradient>
</defs>
</svg>
