<svg width="25" height="37" viewBox="0 0 25 37" fill="none" xmlns="http://www.w3.org/2000/svg">
<path d="M2.9077 24.3179C6.33883 25.2578 7.14946 24.9947 7.76094 25.9144C7.83115 26.0199 8.18966 26.5596 8.11796 27.2522C8.06072 27.804 7.75334 28.2299 7.56 28.4171C6.38459 29.555 3.15024 28.163 1.29791 26.6405C0.894081 26.3085 -0.189503 25.4182 0.0287343 24.7857C0.118176 24.5266 0.395892 24.3978 0.595197 24.3086C1.47634 23.9145 2.39029 24.1761 2.9077 24.3179Z" fill="url(#paint0_linear_1277_16245)"/>
<path d="M13.5013 1.25513H12.771V6.0474H13.5013V1.25513Z" fill="url(#paint1_linear_1277_16245)"/>
<path d="M15.658 8.69464H10.6144C10.2425 8.69464 9.94104 8.39322 9.94104 8.0213V6.21875C9.94104 5.84683 10.2425 5.54541 10.6144 5.54541H15.658C16.0299 5.54541 16.3313 5.84683 16.3313 6.21875V8.0213C16.3312 8.39322 16.0298 8.69464 15.658 8.69464Z" fill="url(#paint2_linear_1277_16245)"/>
<path d="M24.5692 19.1692C24.5692 22.0805 22.2089 24.4407 19.2976 24.4407H6.97453C4.07514 24.4407 1.703 22.0686 1.703 19.1692V16.4308C1.703 11.2723 5.9236 7.05151 11.0823 7.05151H15.19C20.3486 7.05151 24.5693 11.2721 24.5693 16.4308L24.5692 19.1692Z" fill="url(#paint3_linear_1277_16245)"/>
<path d="M20.9726 18.67C20.6734 18.8179 20.338 18.8954 19.9973 18.8954H6.27516C5.93439 18.8954 5.59899 18.8179 5.2998 18.67C4.56489 18.3067 4.15018 17.5732 4.25394 16.8207L4.26154 16.766C4.61319 14.217 6.92167 12.2574 9.7519 12.1101C10.9494 12.0478 12.206 12.0156 13.5168 12.0232C14.5436 12.0292 15.5361 12.0593 16.4918 12.1085C19.3327 12.2548 21.6582 14.2068 22.0112 16.7654C22.0137 16.7837 22.0163 16.8022 22.0188 16.8205C22.1224 17.5732 21.7075 18.3067 20.9726 18.67Z" fill="url(#paint4_linear_1277_16245)"/>
<path d="M9.51979 18.3336C10.9488 18.3336 12.1073 17.1752 12.1073 15.7461C12.1073 14.3171 10.9488 13.1586 9.51979 13.1586C8.09073 13.1586 6.93225 14.3171 6.93225 15.7461C6.93225 17.1752 8.09073 18.3336 9.51979 18.3336Z" fill="url(#paint5_radial_1277_16245)"/>
<path d="M9.51973 17.6037C10.5455 17.6037 11.377 16.7721 11.377 15.7464C11.377 14.7207 10.5455 13.8892 9.51973 13.8892C8.494 13.8892 7.66248 14.7207 7.66248 15.7464C7.66248 16.7721 8.494 17.6037 9.51973 17.6037Z" fill="#EEFDFF"/>
<path d="M9.5197 17.3061C10.3812 17.3061 11.0796 16.6077 11.0796 15.7463C11.0796 14.8848 10.3812 14.1864 9.5197 14.1864C8.65821 14.1864 7.95984 14.8848 7.95984 15.7463C7.95984 16.6077 8.65821 17.3061 9.5197 17.3061Z" fill="url(#paint6_linear_1277_16245)"/>
<path d="M10.519 15.3421C10.519 15.6612 10.2604 15.9199 9.94119 15.9199C9.62204 15.9199 9.3634 15.6611 9.3634 15.3421C9.3634 15.0231 9.62204 14.7643 9.94119 14.7643C10.2604 14.7643 10.519 15.0231 10.519 15.3421Z" fill="#EEFDFF"/>
<path d="M9.28908 17.1733C9.41644 17.1733 9.51969 17.07 9.51969 16.9426C9.51969 16.8153 9.41644 16.712 9.28908 16.712C9.16172 16.712 9.05847 16.8153 9.05847 16.9426C9.05847 17.07 9.16172 17.1733 9.28908 17.1733Z" fill="#EEFDFF"/>
<path d="M8.71716 16.5967C8.71716 16.6603 8.66558 16.7119 8.60193 16.7119C8.53827 16.7119 8.48669 16.6603 8.48669 16.5967C8.48669 16.533 8.53827 16.4814 8.60193 16.4814C8.66558 16.4814 8.71716 16.5332 8.71716 16.5967Z" fill="#EEFDFF"/>
<path d="M16.5098 18.3336C17.9388 18.3336 19.0973 17.1752 19.0973 15.7461C19.0973 14.3171 17.9388 13.1586 16.5098 13.1586C15.0807 13.1586 13.9222 14.3171 13.9222 15.7461C13.9222 17.1752 15.0807 18.3336 16.5098 18.3336Z" fill="url(#paint7_radial_1277_16245)"/>
<path d="M16.5097 17.6037C17.5355 17.6037 18.367 16.7721 18.367 15.7464C18.367 14.7207 17.5355 13.8892 16.5097 13.8892C15.484 13.8892 14.6525 14.7207 14.6525 15.7464C14.6525 16.7721 15.484 17.6037 16.5097 17.6037Z" fill="#EEFDFF"/>
<path d="M16.5098 17.3061C17.3713 17.3061 18.0697 16.6077 18.0697 15.7463C18.0697 14.8848 17.3713 14.1864 16.5098 14.1864C15.6483 14.1864 14.95 14.8848 14.95 15.7463C14.95 16.6077 15.6483 17.3061 16.5098 17.3061Z" fill="url(#paint8_linear_1277_16245)"/>
<path d="M17.5091 15.3421C17.5091 15.6612 17.2503 15.9199 16.9313 15.9199C16.6123 15.9199 16.3534 15.6611 16.3534 15.3421C16.3534 15.0231 16.6122 14.7643 16.9313 14.7643C17.2505 14.7643 17.5091 15.0231 17.5091 15.3421Z" fill="#EEFDFF"/>
<path d="M16.2792 17.1733C16.4066 17.1733 16.5098 17.07 16.5098 16.9426C16.5098 16.8153 16.4066 16.712 16.2792 16.712C16.1518 16.712 16.0486 16.8153 16.0486 16.9426C16.0486 17.07 16.1518 17.1733 16.2792 17.1733Z" fill="#EEFDFF"/>
<path d="M15.7074 16.5967C15.7074 16.6603 15.6558 16.7119 15.5922 16.7119C15.5285 16.7119 15.4769 16.6603 15.4769 16.5967C15.4769 16.533 15.5285 16.4814 15.5922 16.4814C15.6558 16.4814 15.7074 16.5332 15.7074 16.5967Z" fill="#EEFDFF"/>
<path d="M14.0718 0.935706C14.0718 1.45238 13.6529 1.87141 13.1361 1.87141C12.6194 1.87141 12.2006 1.45253 12.2006 0.935706C12.2006 0.419033 12.6194 0 13.1361 0C13.6529 0 14.0718 0.418884 14.0718 0.935706Z" fill="url(#paint9_linear_1277_16245)"/>
<path d="M13.7867 0.570475C13.7867 0.728041 13.6589 0.855644 13.5014 0.855644C13.3438 0.855644 13.2161 0.727891 13.2161 0.570475C13.2161 0.412909 13.3438 0.285156 13.5014 0.285156C13.6589 0.285305 13.7867 0.412909 13.7867 0.570475Z" fill="white"/>
<path d="M21.1925 10.0516C21.2048 10.4884 20.8483 11.0109 20.4398 11.0554C20.057 11.0973 19.7513 10.7062 19.436 10.3028C19.1252 9.90522 18.4456 8.8838 18.7163 8.59491C19.073 8.21404 21.1631 9.0211 21.1925 10.0516Z" fill="white"/>
<path d="M17.6951 8.38644C17.8747 8.38644 18.0202 8.24088 18.0202 8.06133C18.0202 7.88177 17.8747 7.73621 17.6951 7.73621C17.5156 7.73621 17.37 7.88177 17.37 8.06133C17.37 8.24088 17.5156 8.38644 17.6951 8.38644Z" fill="white"/>
<path d="M21.1462 16.1109C21.0418 16.1846 20.3145 14.7028 18.362 13.4181C17.6757 12.9665 16.9982 12.6446 17.0385 12.551C17.0793 12.456 17.8424 12.6327 18.4533 12.9161C20.3998 13.8191 21.2702 16.0234 21.1462 16.1109Z" fill="white"/>
<path d="M16.1463 6.47764C16.123 6.48092 16.1081 6.34423 15.9943 6.13299C15.9943 6.13299 15.941 6.03416 15.8802 5.95038C15.6842 5.68057 15.0196 5.68653 14.9675 5.68698C13.9325 5.69592 13.267 5.63033 13.2673 5.63659C13.2675 5.64181 13.7529 5.63197 14.1085 5.62482C15.1119 5.6044 15.7097 5.55043 15.9659 5.8192C16.0722 5.93071 16.1257 6.0759 16.1257 6.0759C16.1982 6.27297 16.174 6.47362 16.1463 6.47764Z" fill="white"/>
<path d="M15.9312 20.0058C15.9058 20.2537 15.6995 20.4447 15.4515 20.4685L12.0238 20.799C11.7759 20.8228 11.5368 20.6751 11.4645 20.4366C11.4323 20.3306 11.4075 20.2213 11.3907 20.109C11.386 20.0779 11.3942 20.0463 11.4136 20.0214C11.433 19.9967 11.4616 19.9811 11.4929 19.9779L15.8173 19.5608C15.8481 19.5578 15.8787 19.5677 15.9021 19.588C15.9255 19.6082 15.9394 19.6373 15.9407 19.6682C15.9459 19.7825 15.9425 19.8952 15.9312 20.0058Z" fill="#EEFDFF"/>
<path d="M15.9312 20.0061C15.8216 21.0687 14.9769 21.9422 13.8733 22.0476C12.7848 22.153 11.8017 21.478 11.4785 20.4785C11.5648 20.6921 11.7893 20.8223 12.0235 20.7989L15.4521 20.4688C15.6999 20.4442 15.9053 20.2539 15.9312 20.0061Z" fill="url(#paint10_linear_1277_16245)"/>
<path d="M21.3318 27.7045C21.3318 27.736 21.3318 27.7661 21.3305 27.7948C21.3196 28.0824 21.2524 28.2987 21.2196 28.3959C20.2761 31.2781 19.7107 32.798 18.918 34.0276C18.7811 34.2398 18.6373 34.4438 18.4825 34.6437C18.2799 34.9106 18.0581 35.1708 17.8116 35.4392C17.2639 36.0349 16.4355 36.3046 16.1685 36.3978C15.1923 36.7428 14.3296 36.6798 13.756 36.6853H13.656C13.0809 36.6798 12.2197 36.7428 11.2434 36.3978C10.9765 36.3046 10.1467 36.0349 9.6004 35.4392C8.0942 33.8002 7.51507 32.4379 6.19238 28.3959C6.16093 28.3029 6.09787 28.1015 6.08281 27.8318C6.07879 27.7537 6.0773 27.6757 6.08147 27.5976C6.11024 27.1143 6.30597 26.6404 6.6539 26.2078C7.24958 25.4658 8.16963 25.0591 9.12129 25.0549L13.7068 25.0357L18.2088 25.018C19.1811 25.0138 20.123 25.422 20.7405 26.1736C21.0391 26.5377 21.2293 26.9307 21.2992 27.336C21.3087 27.3935 21.3169 27.4524 21.3224 27.51C21.3277 27.5744 21.3318 27.6388 21.3318 27.7045Z" fill="url(#paint11_linear_1277_16245)"/>
<path d="M13.7058 25.0364L9.12026 25.0557C8.1686 25.0598 7.24855 25.4665 6.65287 26.2086C6.30509 26.6413 6.10936 27.1151 6.08044 27.5983C6.1037 27.1027 6.30777 26.6166 6.67061 26.1743C7.28671 25.4225 8.23017 25.0145 9.20225 25.0187L13.7058 25.0364Z" fill="url(#paint12_linear_1277_16245)"/>
<path d="M18.2634 31.792C18.1964 28.2351 17.7151 27.5316 18.425 26.6855C18.5065 26.5883 18.9228 26.0921 19.6075 25.9654C20.1531 25.8644 20.6483 26.0392 20.8827 26.1718C22.306 26.9781 21.8837 30.474 20.946 32.6808C20.7416 33.162 20.1932 34.4528 19.5248 34.4219C19.2509 34.4092 19.049 34.1791 18.9073 34.0131C18.2805 33.279 18.2735 32.3282 18.2634 31.792Z" fill="url(#paint13_linear_1277_16245)"/>
<path d="M18.9178 34.0276C18.7809 34.2398 18.6371 34.4438 18.4823 34.6437C18.433 34.593 18.3892 34.5423 18.3495 34.4958C17.7224 33.7619 17.7155 32.8116 17.706 32.275C17.6389 28.7177 17.157 28.0153 17.8676 27.1691C17.9196 27.1061 18.11 26.8802 18.4194 26.6926C17.7184 27.5361 18.1963 28.2453 18.2634 31.7917C18.2729 32.3283 18.2811 33.2786 18.9069 34.014C18.9109 34.018 18.9151 34.0221 18.9178 34.0276Z" fill="url(#paint14_linear_1277_16245)"/>
<path d="M20.925 28.83C20.9048 28.4478 20.8331 28.1668 20.6897 27.6045C20.5022 26.869 20.267 26.5105 20.4198 26.3684C20.5192 26.276 20.7151 26.3385 20.7595 26.3526C21.4318 26.5671 21.6399 27.8284 21.611 28.6177C21.5932 29.101 21.4753 29.6414 21.2982 29.6652C21.2704 29.669 21.2009 29.6654 21.1513 29.6214C20.9536 29.4468 20.9403 29.1205 20.925 28.83Z" fill="white"/>
<path d="M21.3866 30.179C21.3866 30.256 21.3241 30.3185 21.2471 30.3185C21.17 30.3185 21.1075 30.256 21.1075 30.179C21.1075 30.1019 21.17 30.0394 21.2471 30.0394C21.3241 30.0394 21.3866 30.1019 21.3866 30.179Z" fill="white"/>
<defs>
<linearGradient id="paint0_linear_1277_16245" x1="4.86043" y1="26.4803" x2="18.1639" y2="36.8196" gradientUnits="userSpaceOnUse">
<stop offset="0.0397" stop-color="white" stop-opacity="0.7"/>
<stop offset="1" stop-color="#CACACA"/>
</linearGradient>
<linearGradient id="paint1_linear_1277_16245" x1="11.6479" y1="3.86829" x2="13.8386" y2="3.5488" gradientUnits="userSpaceOnUse">
<stop offset="0.0397" stop-color="white"/>
<stop offset="1" stop-color="#CACACC"/>
</linearGradient>
<linearGradient id="paint2_linear_1277_16245" x1="11.0891" y1="9.43125" x2="14.9769" y2="5.04176" gradientUnits="userSpaceOnUse">
<stop offset="0.0397" stop-color="white" stop-opacity="0.7"/>
<stop offset="1" stop-color="#CACACA"/>
</linearGradient>
<linearGradient id="paint3_linear_1277_16245" x1="5.45783" y1="24.6355" x2="20.8639" y2="9.22945" gradientUnits="userSpaceOnUse">
<stop offset="0.0397" stop-color="white" stop-opacity="0.7"/>
<stop offset="1" stop-color="#CACACA"/>
</linearGradient>
<linearGradient id="paint4_linear_1277_16245" x1="13.0956" y1="18.8732" x2="13.2326" y2="12.7117" gradientUnits="userSpaceOnUse">
<stop stop-color="#030D14"/>
<stop offset="1" stop-color="#0B2F45"/>
</linearGradient>
<radialGradient id="paint5_radial_1277_16245" cx="0" cy="0" r="1" gradientUnits="userSpaceOnUse" gradientTransform="translate(9.51973 15.7461) scale(2.56077)">
<stop offset="0.1296" stop-color="#3280FC"/>
<stop offset="1"/>
</radialGradient>
<linearGradient id="paint6_linear_1277_16245" x1="7.95972" y1="15.7462" x2="11.0796" y2="15.7462" gradientUnits="userSpaceOnUse">
<stop stop-color="#030D14"/>
<stop offset="1" stop-color="#0B2F45"/>
</linearGradient>
<radialGradient id="paint7_radial_1277_16245" cx="0" cy="0" r="1" gradientUnits="userSpaceOnUse" gradientTransform="translate(16.5098 15.7461) scale(2.56077)">
<stop offset="0.1296" stop-color="#3280FC"/>
<stop offset="1"/>
</radialGradient>
<linearGradient id="paint8_linear_1277_16245" x1="14.9499" y1="15.7462" x2="18.0697" y2="15.7462" gradientUnits="userSpaceOnUse">
<stop stop-color="#030D14"/>
<stop offset="1" stop-color="#0B2F45"/>
</linearGradient>
<linearGradient id="paint9_linear_1277_16245" x1="11.1666" y1="1.22287" x2="14.0659" y2="0.800054" gradientUnits="userSpaceOnUse">
<stop offset="0.0397" stop-color="#7367F0" stop-opacity="0.7"/>
<stop offset="1" stop-color="#7367F0"/>
</linearGradient>
<linearGradient id="paint10_linear_1277_16245" x1="13.0425" y1="21.2664" x2="17.5031" y2="16.8058" gradientUnits="userSpaceOnUse">
<stop offset="0.0714" stop-color="white" stop-opacity="0.7"/>
<stop offset="1" stop-color="#CACACA"/>
</linearGradient>
<linearGradient id="paint11_linear_1277_16245" x1="17.6794" y1="34.9881" x2="7.04423" y2="26.3567" gradientUnits="userSpaceOnUse">
<stop stop-color="white" stop-opacity="0.7"/>
<stop offset="1" stop-color="#CACACA"/>
</linearGradient>
<linearGradient id="paint12_linear_1277_16245" x1="8.20362" y1="27.9222" x2="15.3107" y2="19.623" gradientUnits="userSpaceOnUse">
<stop offset="0.0397" stop-color="#06CFF1"/>
<stop offset="1" stop-color="#DEFA8E"/>
</linearGradient>
<linearGradient id="paint13_linear_1277_16245" x1="23.4743" y1="32.7416" x2="14.6257" y2="26.2699" gradientUnits="userSpaceOnUse">
<stop stop-color="white" stop-opacity="0.7"/>
<stop offset="1" stop-color="#CACACA"/>
</linearGradient>
<linearGradient id="paint14_linear_1277_16245" x1="15.5215" y1="32.8303" x2="16.6236" y2="37.2598" gradientUnits="userSpaceOnUse">
<stop offset="0.0397" stop-color="white" stop-opacity="0.7"/>
<stop offset="1" stop-color="#CACACA"/>
</linearGradient>
</defs>
</svg>
