<svg width="28" height="29" viewBox="0 0 28 29" fill="none" xmlns="http://www.w3.org/2000/svg">
<path d="M14 18.4365C14.9942 18.4355 15.9475 18.0401 16.6505 17.337C17.3535 16.634 17.749 15.6808 17.75 14.6865V9.68652C17.75 8.69196 17.3549 7.73813 16.6517 7.03487C15.9484 6.33161 14.9946 5.93652 14 5.93652C13.0054 5.93652 12.0516 6.33161 11.3483 7.03487C10.6451 7.73813 10.25 8.69196 10.25 9.68652V14.6865C10.251 15.6808 10.6465 16.634 11.3495 17.337C12.0525 18.0401 13.0058 18.4355 14 18.4365ZM11.5 9.68652C11.5 9.02348 11.7634 8.3876 12.2322 7.91876C12.7011 7.44992 13.337 7.18652 14 7.18652C14.663 7.18652 15.2989 7.44992 15.7678 7.91876C16.2366 8.3876 16.5 9.02348 16.5 9.68652V14.6865C16.5 15.3496 16.2366 15.9854 15.7678 16.4543C15.2989 16.9231 14.663 17.1865 14 17.1865C13.337 17.1865 12.7011 16.9231 12.2322 16.4543C11.7634 15.9854 11.5 15.3496 11.5 14.6865V9.68652ZM14.625 20.9053V22.8115C14.625 22.9773 14.5592 23.1363 14.4419 23.2535C14.3247 23.3707 14.1658 23.4365 14 23.4365C13.8342 23.4365 13.6753 23.3707 13.5581 23.2535C13.4408 23.1363 13.375 22.9773 13.375 22.8115V20.9053C11.8341 20.7485 10.4061 20.0259 9.36707 18.8772C8.32806 17.7285 7.7519 16.2354 7.75 14.6865C7.75 14.5208 7.81585 14.3618 7.93306 14.2446C8.05027 14.1274 8.20924 14.0615 8.375 14.0615C8.54076 14.0615 8.69973 14.1274 8.81694 14.2446C8.93415 14.3618 9 14.5208 9 14.6865C9 16.0126 9.52678 17.2844 10.4645 18.2221C11.4021 19.1597 12.6739 19.6865 14 19.6865C15.3261 19.6865 16.5979 19.1597 17.5355 18.2221C18.4732 17.2844 19 16.0126 19 14.6865C19 14.5208 19.0658 14.3618 19.1831 14.2446C19.3003 14.1274 19.4592 14.0615 19.625 14.0615C19.7908 14.0615 19.9497 14.1274 20.0669 14.2446C20.1842 14.3618 20.25 14.5208 20.25 14.6865C20.2481 16.2354 19.6719 17.7285 18.6329 18.8772C17.5939 20.0259 16.1659 20.7485 14.625 20.9053Z" fill="#1C1C1C"/>
</svg>
