<svg width="20" height="21" viewBox="0 0 20 21" fill="none" xmlns="http://www.w3.org/2000/svg">
<path d="M17.4898 9.59287L4.36484 2.10146C4.1436 1.97736 3.88983 1.9235 3.63726 1.94705C3.38468 1.9706 3.14525 2.07043 2.95076 2.2333C2.75628 2.39616 2.61594 2.61434 2.54841 2.85885C2.48087 3.10337 2.48933 3.36265 2.57265 3.60224L4.99452 10.6702C4.99421 10.6728 4.99421 10.6754 4.99452 10.678C4.99409 10.6806 4.99409 10.6833 4.99452 10.6858L2.57265 17.7694C2.50592 17.9579 2.48538 18.1596 2.51274 18.3577C2.5401 18.5558 2.61458 18.7444 2.72991 18.9077C2.84525 19.071 2.99808 19.2043 3.17557 19.2963C3.35307 19.3883 3.55005 19.4365 3.74999 19.4366C3.96692 19.4361 4.18004 19.3796 4.36874 19.2726L17.4867 11.7687C17.6802 11.6603 17.8414 11.5023 17.9537 11.3111C18.066 11.1198 18.1254 10.9021 18.1258 10.6803C18.1262 10.4585 18.0676 10.2406 17.956 10.049C17.8443 9.85733 17.6837 9.69883 17.4906 9.58974L17.4898 9.59287ZM3.74999 18.1866V18.1796L6.10468 11.3116H10.625C10.7908 11.3116 10.9497 11.2458 11.0669 11.1286C11.1841 11.0114 11.25 10.8524 11.25 10.6866C11.25 10.5209 11.1841 10.3619 11.0669 10.2447C10.9497 10.1275 10.7908 10.0616 10.625 10.0616H6.11093L3.75468 3.19599L3.74999 3.18662L16.875 10.6733L3.74999 18.1866Z" fill="#1C1C1C" fill-opacity="0.4"/>
</svg>
